<?xml version="1.0" standalone="no"?>
<!DOCTYPE svg PUBLIC "-//W3C//DTD SVG 20010904//EN"
 "http://www.w3.org/TR/2001/REC-SVG-20010904/DTD/svg10.dtd">
<svg version="1.0" xmlns="http://www.w3.org/2000/svg"
 width="400.000000pt" height="400.000000pt" viewBox="0 0 400.000000 400.000000"
 preserveAspectRatio="xMidYMid meet">
<metadata>
Created by potrace 1.11, written by Peter Selinger 2001-2013
</metadata>
<g transform="translate(0.000000,400.000000) scale(0.100000,-0.100000)"
fill="#000000" stroke="none">
<path d="M1803 3739 c-515 -60 -989 -352 -1266 -779 -137 -213 -221 -430 -268
-700 -18 -99 -18 -421 0 -520 47 -270 131 -487 268 -700 315 -485 879 -790
1463 -790 585 0 1148 304 1463 790 450 696 363 1587 -212 2183 -365 378 -923
577 -1448 516z m-408 -984 c32 -20 56 -45 72 -74 l23 -44 0 -646 0 -647 -22
-44 c-34 -67 -93 -103 -174 -108 -82 -6 -140 16 -188 68 -19 21 -40 57 -46 79
-7 28 -10 240 -8 673 3 695 0 659 65 720 46 44 90 59 164 55 53 -2 76 -9 114
-32z m1416 24 c46 -16 97 -55 120 -93 18 -30 19 -59 19 -694 0 -730 3 -691
-64 -749 -101 -90 -281 -60 -343 56 l-23 44 0 636 c0 385 4 650 10 671 12 45
75 107 126 125 48 17 110 19 155 4z m-701 -163 c26 -13 57 -40 75 -65 l30 -43
3 -646 c3 -726 5 -702 -69 -765 -87 -75 -211 -75 -298 0 -74 63 -72 39 -69
763 l3 645 23 37 c62 99 189 130 302 74z"/>
</g>
</svg>
